<svg width="161" height="88" viewBox="0 0 161 88" fill="none" xmlns="http://www.w3.org/2000/svg">
<rect x="19" width="16" height="16" fill="#FF4960"/>
<rect x="55" width="16" height="16" fill="#FF4960"/>
<rect x="91" width="16" height="16" fill="#FF4960"/>
<rect x="127" width="16" height="16" fill="#FF4960"/>
<rect x="19" y="48" width="16" height="16" fill="#FF4960"/>
<rect x="55" y="48" width="16" height="16" fill="#FF4960"/>
<rect x="91" y="48" width="16" height="16" fill="#FF4960"/>
<rect x="127" y="48" width="16" height="16" fill="#FF4960"/>
<rect y="72" width="16" height="16" fill="#FF4960"/>
<rect x="36" y="72" width="16" height="16" fill="#FF4960"/>
<rect x="72" y="72" width="16" height="16" fill="#FF4960"/>
<rect x="108" y="72" width="16" height="16" fill="#FF4960"/>
<rect x="37" y="24" width="16" height="16" fill="#FF4960"/>
<rect x="73" y="24" width="16" height="16" fill="#FF4960"/>
<rect x="109" y="24" width="16" height="16" fill="#FF4960"/>
<rect x="145" y="24" width="16" height="16" fill="#FF4960"/>
</svg>
