<svg width="163" height="24" viewBox="0 0 163 24" fill="none" xmlns="http://www.w3.org/2000/svg">
<g clip-path="url(#clip0_80_114)">
<path d="M24.1602 23.2111L24.0169 18.242C24.0169 17.99 23.8733 17.774 23.6932 17.63L20.7408 15.4696L18.4725 18.9269C18.3292 19.1436 18.1124 19.2869 17.8604 19.2869L12.4596 19.5037C12.2516 19.505 12.0508 19.4278 11.8972 19.2875C11.7437 19.1472 11.6488 18.9541 11.6315 18.7468L11.5951 18.2788C11.5584 17.8467 11.9184 17.4867 12.3516 17.4503L16.2023 17.2703C16.4904 17.2703 16.7424 17.0902 16.8861 16.8018L18.578 13.238V13.2013L21.2063 6.72038L17.8226 7.80054C17.6774 7.84113 17.5504 7.93004 17.4625 8.05258L15.3389 10.681C15.0869 10.969 14.6905 11.0777 14.3668 10.8977C13.9351 10.681 13.8267 10.1056 14.1151 9.74554L16.6722 6.28868C16.7802 6.14502 16.889 6.07193 17.069 6.00028L21.4976 4.52335C21.6413 4.48698 21.786 4.48698 21.9297 4.48698L25.1702 5.27873C25.3135 5.31546 25.4582 5.38675 25.5666 5.53077L27.7989 7.97913C28.0506 8.26717 28.4823 8.30281 28.807 8.08714L31.111 6.50363C31.4343 6.28724 31.9028 6.32361 32.1544 6.64729L32.2265 6.7193C32.5145 7.07936 32.4425 7.61943 32.0824 7.87075L28.339 10.4631C28.0153 10.6795 27.5821 10.6432 27.3308 10.3547L24.8465 7.79766L23.0102 12.8384C22.9015 13.1264 22.9735 13.4865 23.2262 13.7022L26.3587 16.5826C26.5387 16.7259 26.6107 16.9426 26.6107 17.1943L26.4307 23.2432C26.4307 23.6752 26.0706 24 25.6386 24H24.9905C24.5203 23.9676 24.1955 23.6428 24.1602 23.2111ZM25.0603 0.0594207C23.5481 -0.300632 22.2167 1.03156 22.5767 2.54306C22.7567 3.26316 23.3332 3.83997 24.0533 4.01999C25.5655 4.38005 26.8973 3.04785 26.5373 1.53635C26.3922 0.81625 25.7804 0.204161 25.0603 0.0594207ZM3.96057 7.00879L13.4652 7.40556L14.4374 6.14538L3.96057 7.00879ZM0 10.7177L12.0985 11.5098L11.9905 9.74554L0 10.7177ZM4.39227 14.535L15.3022 15.183L15.9503 13.8869L4.39227 14.535Z" fill="#FF4960"/>
<path d="M39.9004 11.79H41.6104L46.1104 18H44.2204L39.9004 11.79ZM37.6504 5.40002H39.1804V18H37.6504V5.40002ZM38.4964 6.75002V5.40002H41.0704C41.8864 5.40002 42.6124 5.55602 43.2484 5.86802C43.8964 6.16802 44.4064 6.60002 44.7784 7.16402C45.1624 7.72802 45.3544 8.40002 45.3544 9.18002C45.3544 9.94802 45.1624 10.62 44.7784 11.196C44.4064 11.76 43.8964 12.198 43.2484 12.51C42.6124 12.81 41.8864 12.96 41.0704 12.96H38.4964V11.61H41.0704C41.6104 11.61 42.0844 11.514 42.4924 11.322C42.9124 11.13 43.2364 10.854 43.4644 10.494C43.7044 10.134 43.8244 9.69602 43.8244 9.18002C43.8244 8.66402 43.7044 8.22602 43.4644 7.86602C43.2364 7.50602 42.9124 7.23002 42.4924 7.03802C42.0844 6.84602 41.6104 6.75002 41.0704 6.75002H38.4964ZM47.6326 5.40002H49.1626V13.86C49.1626 14.724 49.3966 15.42 49.8646 15.948C50.3326 16.476 51.0166 16.74 51.9166 16.74C52.8166 16.74 53.5006 16.476 53.9686 15.948C54.4366 15.42 54.6706 14.724 54.6706 13.86V5.40002H56.2006V13.86C56.2006 14.484 56.0986 15.06 55.8946 15.588C55.7026 16.116 55.4146 16.572 55.0306 16.956C54.6586 17.34 54.2086 17.64 53.6806 17.856C53.1526 18.072 52.5646 18.18 51.9166 18.18C51.2686 18.18 50.6806 18.072 50.1526 17.856C49.6246 17.64 49.1686 17.34 48.7846 16.956C48.4126 16.572 48.1246 16.116 47.9206 15.588C47.7286 15.06 47.6326 14.484 47.6326 13.86V5.40002ZM68.5302 5.40002H70.0602V18.63L60.5202 8.62202V18H58.9902V4.77002L68.5302 14.778V5.40002ZM82.4872 5.40002H84.0172V18.63L74.4772 8.62202V18H72.9472V4.77002L82.4872 14.778V5.40002ZM86.9043 5.40002H88.4343V18H86.9043V5.40002ZM100.856 5.40002H102.386V18.63L92.8464 8.62202V18H91.3164V4.77002L100.856 14.778V5.40002ZM111.123 13.05V11.61H116.973C116.973 12.486 116.841 13.32 116.577 14.112C116.313 14.892 115.923 15.588 115.407 16.2C114.891 16.812 114.255 17.298 113.499 17.658C112.755 18.006 111.903 18.18 110.943 18.18C110.031 18.18 109.185 18.024 108.405 17.712C107.625 17.388 106.947 16.938 106.371 16.362C105.795 15.774 105.345 15.084 105.021 14.292C104.709 13.5 104.553 12.636 104.553 11.7C104.553 10.764 104.709 9.90002 105.021 9.10802C105.345 8.31602 105.795 7.63202 106.371 7.05602C106.947 6.46802 107.625 6.01802 108.405 5.70602C109.185 5.38202 110.031 5.22002 110.943 5.22002C111.723 5.22002 112.437 5.32202 113.085 5.52602C113.745 5.73002 114.333 6.03002 114.849 6.42602C115.377 6.82202 115.821 7.31402 116.181 7.90202L115.101 8.89202C114.705 8.22002 114.153 7.69802 113.445 7.32602C112.737 6.94202 111.903 6.75002 110.943 6.75002C110.055 6.75002 109.251 6.96002 108.531 7.38002C107.811 7.80002 107.235 8.38202 106.803 9.12602C106.383 9.85802 106.173 10.716 106.173 11.7C106.173 12.672 106.383 13.53 106.803 14.274C107.235 15.018 107.811 15.6 108.531 16.02C109.251 16.44 110.055 16.65 110.943 16.65C111.567 16.65 112.125 16.56 112.617 16.38C113.121 16.188 113.553 15.924 113.913 15.588C114.273 15.252 114.567 14.868 114.795 14.436C115.035 14.004 115.209 13.542 115.317 13.05H111.123Z" fill="white"/>
<path d="M122.112 11.7001C122.112 12.5881 122.31 13.3681 122.706 14.0401C123.114 14.7121 123.642 15.2341 124.29 15.6061C124.95 15.9661 125.664 16.1461 126.432 16.1461C127.032 16.1461 127.572 16.0681 128.052 15.9121C128.532 15.7561 128.964 15.5461 129.348 15.2821C129.744 15.0061 130.086 14.7001 130.374 14.3641V16.8841C129.846 17.3161 129.276 17.6461 128.664 17.8741C128.052 18.1021 127.284 18.2161 126.36 18.2161C125.436 18.2161 124.572 18.0601 123.768 17.7481C122.976 17.4361 122.286 16.9861 121.698 16.3981C121.11 15.8101 120.648 15.1201 120.312 14.3281C119.988 13.5241 119.826 12.6481 119.826 11.7001C119.826 10.7521 119.988 9.88208 120.312 9.09008C120.648 8.28608 121.11 7.59008 121.698 7.00208C122.286 6.41408 122.976 5.96408 123.768 5.65208C124.572 5.34008 125.436 5.18408 126.36 5.18408C127.284 5.18408 128.052 5.29808 128.664 5.52608C129.276 5.75408 129.846 6.08408 130.374 6.51608V9.03608C130.086 8.70008 129.744 8.40008 129.348 8.13608C128.964 7.86008 128.532 7.64408 128.052 7.48808C127.572 7.33208 127.032 7.25408 126.432 7.25408C125.664 7.25408 124.95 7.44008 124.29 7.81208C123.642 8.17208 123.114 8.68808 122.706 9.36008C122.31 10.0201 122.112 10.8001 122.112 11.7001ZM132.991 5.40008H135.115V16.0921H140.119V18.0001H132.991V5.40008ZM141.567 5.40008H143.691V13.7701C143.691 14.5501 143.895 15.1801 144.303 15.6601C144.723 16.1281 145.341 16.3621 146.157 16.3621C146.961 16.3621 147.573 16.1281 147.993 15.6601C148.413 15.1801 148.623 14.5501 148.623 13.7701V5.40008H150.747V13.8601C150.747 14.5561 150.633 15.1801 150.405 15.7321C150.189 16.2721 149.877 16.7341 149.469 17.1181C149.061 17.5021 148.575 17.7961 148.011 18.0001C147.447 18.2041 146.829 18.3061 146.157 18.3061C145.485 18.3061 144.867 18.2041 144.303 18.0001C143.739 17.7961 143.247 17.5021 142.827 17.1181C142.419 16.7341 142.107 16.2721 141.891 15.7321C141.675 15.1801 141.567 14.5561 141.567 13.8601V5.40008ZM155.089 11.5021V10.4581H157.123C157.519 10.4581 157.867 10.3921 158.167 10.2601C158.467 10.1281 158.701 9.94208 158.869 9.70208C159.037 9.45008 159.121 9.15008 159.121 8.80208C159.121 8.27408 158.935 7.86608 158.563 7.57808C158.191 7.29008 157.711 7.14608 157.123 7.14608H155.593V16.2541H157.357C157.837 16.2541 158.263 16.1761 158.635 16.0201C159.007 15.8641 159.301 15.6301 159.517 15.3181C159.733 15.0061 159.841 14.6161 159.841 14.1481C159.841 13.8121 159.775 13.5181 159.643 13.2661C159.523 13.0021 159.349 12.7861 159.121 12.6181C158.905 12.4381 158.647 12.3121 158.347 12.2401C158.047 12.1561 157.717 12.1141 157.357 12.1141H155.089V10.9441H157.483C158.095 10.9441 158.671 11.0101 159.211 11.1421C159.751 11.2741 160.231 11.4781 160.651 11.7541C161.083 12.0301 161.419 12.3841 161.659 12.8161C161.899 13.2481 162.019 13.7641 162.019 14.3641C162.019 15.1921 161.821 15.8761 161.425 16.4161C161.041 16.9561 160.507 17.3581 159.823 17.6221C159.151 17.8741 158.371 18.0001 157.483 18.0001H153.469V5.40008H157.267C158.059 5.40008 158.755 5.51408 159.355 5.74208C159.967 5.97008 160.441 6.31808 160.777 6.78608C161.125 7.25408 161.299 7.84808 161.299 8.56808C161.299 9.19208 161.125 9.72608 160.777 10.1701C160.441 10.6021 159.967 10.9321 159.355 11.1601C158.755 11.3881 158.059 11.5021 157.267 11.5021H155.089Z" fill="#FF4960"/>
</g>
<defs>
<clipPath id="clip0_80_114">
<rect width="163" height="24" fill="white"/>
</clipPath>
</defs>
</svg>
